<?xml version="1.0" encoding="UTF-8"?><svg xmlns="http://www.w3.org/2000/svg" viewBox="0 0 589.24 75.84"><g id="a"/><g id="b"><g id="c"><g><path d="M178.94,6.54c.78-1.52,1.11-2.79,.98-3.8-.18-.95-.92-1.64-2.21-2.08-1.3-.44-3.26-.66-5.9-.66h-40.96c-2.64,0-4.9,.22-6.78,.66-1.88,.44-3.55,1.13-4.99,2.08-1.49,1.01-2.86,2.28-4.12,3.8-1.26,1.52-2.61,3.36-4.06,5.53l-25.19,37.62h-14.8L104.19,0h-28.79L7.67,51,0,62.46H38.43l-8.96,13.38h23.93l8.96-13.38h14.8l-.88,1.32c-1.45,2.16-2.58,4.02-3.38,5.58-.8,1.55-1.12,2.8-.94,3.75,.18,.95,.91,1.64,2.21,2.08,1.29,.44,3.26,.66,5.9,.66h40.96c2.64,0,4.9-.22,6.78-.66,1.88-.44,3.55-1.13,4.99-2.08,1.45-.95,2.81-2.2,4.08-3.75,1.28-1.56,2.64-3.41,4.09-5.58L175.6,12.06c1.45-2.16,2.56-4,3.35-5.53ZM46.98,49.68H27.72l39.64-30.42-20.37,30.42ZM150.51,15.31l-30.29,45.22c-.63,.95-1.23,1.61-1.78,1.98-.55,.37-1.3,.56-2.25,.56h-13.18c-.95,0-1.45-.19-1.5-.56-.06-.37,.23-1.03,.87-1.98l30.29-45.22c.63-.95,1.23-1.6,1.78-1.98,.55-.37,1.3-.56,2.25-.56h13.18c.95,0,1.45,.19,1.5,.56,.06,.37-.23,1.03-.87,1.98Z"/><path d="M251.73,.66c-1.3-.44-3.26-.66-5.9-.66h-40.96c-2.64,0-4.9,.22-6.78,.66-1.88,.44-3.55,1.13-4.99,2.08-1.49,1.01-2.86,2.28-4.12,3.8-1.26,1.52-2.61,3.36-4.06,5.53l-34.63,51.71c-1.45,2.16-2.58,4.02-3.38,5.58-.8,1.55-1.12,2.8-.94,3.75,.18,.95,.91,1.64,2.21,2.08,1.29,.44,3.26,.66,5.9,.66h40.96c2.64,0,4.9-.22,6.78-.66,1.88-.44,3.55-1.13,4.99-2.08,1.45-.95,2.81-2.2,4.08-3.75,1.28-1.56,2.64-3.41,4.09-5.58l18.13-27.07c1.9-2.84,2.59-4.7,2.06-5.58-.53-.88-1.87-1.32-4.03-1.32h-34.17l9.71-14.5c.63-.95,1.23-1.6,1.78-1.98,.55-.37,1.3-.56,2.25-.56h13.18c.95,0,1.45,.19,1.5,.56,.06,.37-.23,1.03-.87,1.98l-4.89,7.3h22.91l7.06-10.55c1.45-2.16,2.56-4,3.35-5.53,.78-1.52,1.11-2.79,.98-3.8-.18-.95-.92-1.64-2.21-2.08Zm-45.47,41.92l-12.02,17.95c-.63,.95-1.23,1.61-1.78,1.98-.55,.37-1.3,.56-2.25,.56h-13.18c-.95,0-1.45-.19-1.5-.56-.06-.37,.23-1.03,.87-1.98l12.02-17.95h17.84Z"/><path d="M325.72,23.93h22.91l7.95-11.86c1.45-2.16,2.56-4,3.35-5.53,.78-1.52,1.11-2.79,.98-3.8-.18-.95-.91-1.64-2.21-2.08-1.3-.44-3.26-.66-5.9-.66h-45.02c-2.64,0-4.9,.22-6.78,.66-1.88,.44-3.55,1.13-4.99,2.08-1.49,1.01-2.86,2.28-4.12,3.8-1.26,1.52-2.61,3.36-4.06,5.53l-15.35,22.91c-.95,1.42-1.72,2.67-2.31,3.75-.59,1.08-.86,1.99-.82,2.74,.04,.74,.44,1.32,1.18,1.72s2.03,.61,3.85,.61h38.02l-11.2,16.73c-.63,.95-1.23,1.61-1.78,1.98-.55,.37-1.3,.56-2.25,.56h-17.24c-.95,0-1.45-.19-1.5-.56-.06-.37,.23-1.03,.87-1.98l5.77-8.62h-23.93l-7.95,11.86c-1.45,2.16-2.58,4.02-3.38,5.58-.8,1.55-1.12,2.8-.94,3.75,.18,.95,.91,1.64,2.21,2.08,1.29,.44,3.26,.66,5.9,.66h45.02c2.64,0,4.9-.22,6.78-.66,1.88-.44,3.55-1.13,4.99-2.08,1.44-.95,2.81-2.2,4.08-3.75,1.28-1.56,2.64-3.41,4.09-5.58l16.43-24.54c1.31-1.96,2.11-3.5,2.38-4.61,.27-1.12,.15-1.94-.37-2.48-.52-.54-1.38-.86-2.6-.96-1.22-.1-2.67-.15-4.36-.15h-34.37l10.53-15.72c.63-.95,1.23-1.6,1.78-1.98,.55-.37,1.3-.56,2.25-.56h17.24c.95,0,1.45,.19,1.5,.56,.05,.37-.23,1.03-.87,1.98l-5.77,8.62Z"/><path d="M439.01,6.54c.78-1.52,1.11-2.79,.98-3.8-.18-.95-.91-1.64-2.21-2.08-1.3-.44-3.26-.66-5.9-.66h-45.02c-2.64,0-4.9,.22-6.78,.66-1.88,.44-3.55,1.13-4.99,2.08-1.49,1.01-2.86,2.28-4.12,3.8-1.26,1.52-2.61,3.36-4.05,5.53l-34.63,51.71c-1.45,2.16-2.58,4.02-3.38,5.58-.8,1.55-1.12,2.8-.94,3.75,.18,.95,.91,1.64,2.21,2.08,1.29,.44,3.26,.66,5.9,.66h45.02c2.64,0,4.9-.22,6.78-.66,1.88-.44,3.55-1.13,4.99-2.08,1.44-.95,2.81-2.2,4.08-3.75,1.28-1.56,2.64-3.41,4.09-5.58l34.63-51.71c1.45-2.16,2.56-4,3.35-5.53Zm-28.43,8.77l-30.29,45.22c-.63,.95-1.23,1.61-1.78,1.98-.55,.37-1.3,.56-2.25,.56h-17.24c-.95,0-1.45-.19-1.5-.56-.06-.37,.23-1.03,.87-1.98l30.29-45.22c.63-.95,1.23-1.6,1.78-1.98,.55-.37,1.3-.56,2.25-.56h17.24c.95,0,1.45,.19,1.5,.56,.05,.37-.23,1.03-.87,1.98Z"/><polygon points="527.83 0 524.75 0 518.67 0 515.04 0 454.08 0 403.29 75.84 428.23 75.84 450.03 43.29 489.77 43.29 498.33 30.52 458.59 30.52 470.47 12.78 509.08 12.78 510.11 12.78 516.2 12.78 521.86 12.78 536.47 12.78 494.23 75.84 518.16 75.84 560.4 12.78 580.68 12.78 589.24 0 527.83 0"/></g></g></g></svg>